#!OML:ASF F:\VICON\USERDATA\INSTALL\rory3\rory3.ASF
:FULLY-SPECIFIED
:DEGREES
9
root -1.6678183451118391 16.94191223139021 -26.35798462307647 4.495666054200163 -3.3251486707810476 -3.872778901026773
lfemur -39.36019141306464 12.822277458142231 -13.15971324309996
ltibia 112.44798197425943
lfoot 9.877135759277923 -16.699391409797002
ltoes -3.778547256024969
rfemur -15.637700045870195 8.035501443965277 31.963791786828722
rtibia 54.676503598036994
rfoot -25.118381658144983 -14.973586904743396
rtoes -17.622384998969437
lowerback 17.29768859079225 0.2825352287638425 2.313986547733142
upperback -0.2008369713661166 1.1210812569906972 2.7543352619868693
thorax -9.976135008142872 0.4960306621138396 1.3972644123692413
lowerneck -16.838714560954088 -3.220778453283922 -2.8226993476222084
upperneck 14.821893007405226 -4.100519216285019 2.2580582050083793
head 7.429652074064176 -1.9056583428761582 0.7391708270703707
lclavicle -2.0490531997704446e-17 4.2580992127051844e-16
lhumerus -56.815197053477775 -9.278063997169303 97.30628432835363
lradius 87.42950920417954
lwrist 34.91229872656577
lhand -30.38779613264338 -0.27704031123059014
lfingers 7.125019999999998
lthumb -3.69198612889236 29.670704728185104
rclavicle -2.0490531997704446e-17 4.2580992127051844e-16
rhumerus -34.50200630840473 16.507793540592704 -96.47049350496795
rradius 107.3609973858645
rwrist -20.32829975447091
rhand -19.55959644429421 39.685104538592505
rfingers 7.125019999999998
rthumb 6.764943554744825 9.813154657446924
10
root -1.6435590540010931 16.97131173197183 -25.874284837238925 4.7201443293848495 -3.2783987928824216 -3.8657289221293016
lfemur -42.0771900935046 12.861177374471502 -13.781012316738419
ltibia 111.6259822532121
lfoot 9.501485986969508 -16.77979128951911
ltoes 0.28124673226265173
rfemur -13.495800967437646 8.142721259653719 31.948491811117574
rtibia 53.55910396169936
rfoot -24.91438177433122 -14.345888179527392
rtoes -17.773184892317357
lowerback 17.076489937967704 0.5291525159921973 2.6791956094825027
upperback -0.28710281835484974 1.4963597320128386 2.566406762857013
thorax -9.934435707823708 0.6506291625461289 0.8909756331961047
lowerneck -16.922014076828287 -3.463306806809999 -2.8084496530183176
upperneck 14.863092769624425 -4.463437597147855 2.421247004371128
head 7.470771189087888 -2.061246722638082 0.7470935956762321
lclavicle -2.0490550469163277e-17 4.2580988767936684e-16
lhumerus -57.957596151855334 -9.715822922780534 97.42038398182545
lradius 88.18050873961938
lwrist 35.44909623052941
lhand -30.140296806253797 -0.4516821253065819
lfingers 7.125019999999998
lthumb -3.4529168029586748 29.500104911782913
rclavicle -2.0490550469163277e-17 4.2580988767936684e-16
rhumerus -32.97090732487379 16.557293469549776 -96.29719417817063
rradius 109.37399579170076
rwrist -20.616998914815746
rhand -19.464796931618967 39.71300444638469
rfingers 7.125019999999998
rthumb 6.856493067154025 9.844034555039656
11
root -1.6238496299370881 17.0699100570517 -25.379685056227444 4.724114298880945 -3.54729809057098 -3.9645086264543683
lfemur -44.00908915524252 12.941477201752786 -14.304911535600787
ltibia 109.92198283147897
lfoot 9.343056082998219 -16.468791754773147
ltoes 4.410434651978244
rfemur -10.979002050308459 8.401600814638108 32.043691659987
rtibia 52.15030442019903
rfoot -23.748682438245037 -13.803289281483433
rtoes -18.250084555033656
lowerback 17.385288057281546 0.8877150257543599 3.0757845906143926
upperback -0.4645384467873525 2.0533374686836763 2.362128394303577
thorax -10.284179839397511 0.8829919086842202 0.29854323189046167
lowerneck -16.710315307193607 -3.7208050587085864 -2.7230714828232
upperneck 14.853192826761077 -4.862305817622778 2.536326157693419
head 7.442841790191675 -2.2376948851741782 0.72832014397783
lclavicle -2.0490531484610374e-17 4.2580986726110574e-16
lhumerus -59.29129509925217 -9.975402285696672 97.38538408812244
lradius 88.96680825322309
lwrist 35.86979427433996
lhand -29.854897583015063 0.34504602649510474
lfingers 7.125019999999998
lthumb -3.1772875801072007 30.3011040497557
rclavicle -2.0490531484610374e-17 4.2580986726110574e-16
rhumerus -31.672808186658408 16.43779364105743 -96.23869440542023
rradius 111.39499419120156
rwrist -20.935997987036057
rhand -19.2623979720676 39.66690459874241
rfingers 7.125019999999998
rthumb 7.051842026729526 9.804364686597175
12
root -1.5904406061938934 17.150208692994028 -24.868485282565864 4.890193022788073 -3.9297970915596925 -3.9592086423186736
lfemur -45.77268829871846 13.016877039573572 -15.051210422863594
ltibia 107.9039835163045
lfoot 7.364587282202186 -15.756992819621452
ltoes 1.487017540772257
rfemur -8.72290302101126 8.736400239115756 31.91759186017151
rtibia 50.75750487349149
rfoot -22.003283432321673 -12.947191020120673
rtoes -19.283283824311162
lowerback 17.242888924540967 1.3652567091991241 3.4931035184894315
upperback -0.6217263458467711 2.7411446737171983 2.070730721518816
thorax -10.332979020586368 1.175705069438023 -0.42899857676013325
lowerneck -16.738515143299878 -4.009113101445995 -2.445077440726197
upperneck 15.032491791952868 -5.324013757742302 2.511296341846557
head 7.510800327570357 -2.4424327531120675 0.6201553030641849
lclavicle -2.0490470426266204e-17 4.258099344435249e-16
lhumerus -60.58979407443011 -10.399791244121722 97.33788423238265
lradius 89.68290781025172
lwrist 36.188092794294555
lhand -29.409998793880817 1.5207827748034846
lfingers 7.125019999999998
lthumb -2.7477187912949987 31.482802778023455
rclavicle -2.0490470426266204e-17 4.258099344435249e-16
rhumerus -30.522608950254984 16.016394245855082 -96.1143948882771
rradius 113.34999264297
rwrist -21.24069710084649
rhand -19.570196389804313 41.35439902165625
rfingers 7.125019999999998
rthumb 6.754743609069524 11.482099122712183
13
root -1.5499917881629939 17.2282073680065 -24.336785517980672 5.166910896581312 -3.8404773248451494 -3.825299043147103
lfemur -47.40918750392273 12.39687837314283 -15.946209088413916
ltibia 105.52998432194146
lfoot 2.8478100199442618 -14.558094613168286
ltoes -12.147298986387476
rfemur -6.5689039477848254 8.697890305314589 31.625992323088212
rtibia 49.196905381395055
rfoot -19.837984665548433 -12.1530926328433
rtoes -20.484382974842838
lowerback 16.522293313214686 1.674544561176699 3.8652525624094363
upperback -0.58059889554767 3.16142296587853 1.8402725620473865
thorax -9.829987460381583 1.3613632685988195 -0.9694982058679702
lowerneck -17.266312075813754 -4.288781202838145 -2.063725613768954
upperneck 15.236890612283055 -5.7406218990717 2.215988514529853
head 7.658647145572685 -2.63952070071331 0.40135369343256744
lclavicle -2.049057407160928e-17 4.258098975590637e-16
lhumerus -61.405193430887614 -10.519890949361834 97.36668414491541
lradius 90.12670753572205
lwrist 36.014893599647564
lhand -29.667398093325986 2.0799121795532276
lfingers 7.125019999999998
lthumb -2.996208090668661 32.03860217987774
rclavicle -2.049057407160928e-17 4.258098975590637e-16
rhumerus -29.21490981841287 15.724794664362452 -95.72509640055526
rradius 115.17199120006572
rwrist -21.88949521387639
rhand -19.455296980454253 44.52668853739525
rfingers 7.125019999999998
rthumb 6.865643018421575 14.658088590151262
